<svg height="314pt" viewBox="0 0 421 314" width="421pt" xmlns="http://www.w3.org/2000/svg" xmlns:xlink="http://www.w3.org/1999/xlink"><defs><style>*{stroke-linecap:butt;stroke-linejoin:round}</style></defs><g id="figure_1"><path d="M0 314.234h421.062V0H0z" fill="#fff" id="patch_1"/><g id="axes_1"><path d="M53.242 276.812h357.12V10.7H53.242z" fill="#fff" id="patch_2"/><g id="matplotlib.axis_1"><g id="xtick_1"><g id="line2d_1"><defs><path d="M0 0v3.5" id="md6eb2cfbb6" stroke="#000" stroke-width=".8"/></defs><use x="69.475" xlink:href="#md6eb2cfbb6" y="276.812" stroke="#000" stroke-width=".8"/></g><g id="text_1"><defs><path d="M56.984 36.375q0-19.578-6.125-28.734-6.125-9.157-19.015-9.157-13.094 0-19.125 9.282-6.031 9.28-6.031 28.515 0 19.39 6.093 28.64 6.11 9.25 19.063 9.25 13.078 0 19.11-9.405 6.03-9.391 6.03-28.391zM44.141 14.203q1.703 3.969 2.312 9.313.625 5.343.625 12.859 0 7.422-.625 12.89-.61 5.47-2.36 9.282-1.702 3.766-4.671 5.656-2.953 1.906-7.578 1.906-4.594 0-7.61-1.906-3-1.89-4.75-5.75-1.656-3.625-2.265-9.437-.61-5.797-.61-12.735 0-7.625.532-12.75.53-5.125 2.297-9.172Q21.047 10.547 24 8.547q2.953-2 7.844-2 4.578 0 7.61 1.906 3.03 1.906 4.687 5.75z" id="Verdana-30"/></defs><use xlink:href="#Verdana-30" transform="matrix(.1 0 0 -.1 66.296 291.41)"/></g></g><g id="xtick_2"><use x="134.758" xlink:href="#md6eb2cfbb6" y="276.812" stroke="#000" stroke-width=".8" id="line2d_2"/><g id="text_2"><defs><path d="M57.078 0H7.86v10.203q5.125 4.39 10.282 8.781 5.156 4.407 9.593 8.75 9.375 9.078 12.844 14.422 3.469 5.36 3.469 11.563 0 5.656-3.734 8.843-3.735 3.204-10.422 3.204-4.453 0-9.625-1.563-5.172-1.562-10.11-4.781h-.484v10.25q3.469 1.719 9.25 3.125 5.781 1.422 11.203 1.422 11.188 0 17.531-5.406Q54 63.422 54 54.203q0-4.156-1.047-7.75-1.047-3.578-3.094-6.797-1.906-3.031-4.468-5.968-2.563-2.922-6.235-6.485-5.218-5.125-10.797-9.937-5.562-4.813-10.39-8.922h39.11z" id="Verdana-32"/></defs><g transform="matrix(.1 0 0 -.1 122.043 291.41)"><use xlink:href="#Verdana-32"/><use x="63.574" xlink:href="#Verdana-30"/><use x="127.148" xlink:href="#Verdana-30"/><use x="190.723" xlink:href="#Verdana-30"/></g></g></g><g id="xtick_3"><use x="200.042" xlink:href="#md6eb2cfbb6" y="276.812" stroke="#000" stroke-width=".8" id="line2d_3"/><g id="text_3"><defs><path d="M58.734 20.453h-10.78V0h-9.376v20.453H3.766v11.235l35.203 41.015h8.984V28.266h10.781zm-20.156 7.813v32.812L10.406 28.266z" id="Verdana-34"/></defs><g transform="matrix(.1 0 0 -.1 187.326 291.41)"><use xlink:href="#Verdana-34"/><use x="63.574" xlink:href="#Verdana-30"/><use x="127.148" xlink:href="#Verdana-30"/><use x="190.723" xlink:href="#Verdana-30"/></g></g></g><g id="xtick_4"><use x="265.325" xlink:href="#md6eb2cfbb6" y="276.812" stroke="#000" stroke-width=".8" id="line2d_4"/><g id="text_4"><defs><path d="M58.156 23.578q0-11.078-7.297-18.094-7.297-7-17.906-7-5.36 0-9.766 1.657-4.39 1.671-7.75 4.937-4.203 4.047-6.484 10.735-2.265 6.703-2.265 16.124 0 9.672 2.078 17.141 2.078 7.469 6.609 13.281 4.297 5.516 11.078 8.61 6.797 3.11 15.828 3.11 2.89 0 4.844-.25 1.953-.25 3.953-.876v-9.328h-.484q-1.375.734-4.14 1.39-2.75.657-5.626.657-10.5 0-16.75-6.563-6.25-6.562-7.281-17.75 4.11 2.485 8.078 3.782 3.984 1.297 9.203 1.297 4.64 0 8.172-.86 3.547-.844 7.266-3.437 4.297-2.985 6.468-7.532 2.172-4.53 2.172-11.03zm-9.906-.39q0 4.546-1.344 7.515-1.343 2.985-4.422 5.188-2.25 1.562-4.984 2.047-2.734.484-5.719.484-4.14 0-7.703-.984-3.562-.97-7.328-3.016-.094-1.078-.156-2.078-.047-1-.047-2.516 0-7.703 1.594-12.172 1.593-4.468 4.375-7.062 2.234-2.14 4.843-3.14 2.625-1 5.703-1 7.079 0 11.126 4.312 4.062 4.328 4.062 12.421z" id="Verdana-36"/></defs><g transform="matrix(.1 0 0 -.1 252.61 291.41)"><use xlink:href="#Verdana-36"/><use x="63.574" xlink:href="#Verdana-30"/><use x="127.148" xlink:href="#Verdana-30"/><use x="190.723" xlink:href="#Verdana-30"/></g></g></g><g id="xtick_5"><use x="330.609" xlink:href="#md6eb2cfbb6" y="276.812" stroke="#000" stroke-width=".8" id="line2d_5"/><g id="text_5"><defs><path d="M57.625 20.266q0-9.422-7.36-15.672-7.343-6.25-18.484-6.25-11.812 0-18.828 6.093-7 6.11-7 15.625 0 6.063 3.516 10.97 3.515 4.905 9.922 7.78v.297q-5.86 3.125-8.672 6.828-2.813 3.72-2.813 9.282 0 8.203 6.735 13.672 6.75 5.468 17.14 5.468 10.89 0 17.39-5.218 6.5-5.22 6.5-13.282 0-4.937-3.077-9.703-3.078-4.75-9.032-7.437v-.297Q50.392 35.5 54 31.203q3.625-4.297 3.625-10.937zm-11.578 35.5q0 5.218-4.031 8.312-4.032 3.11-10.282 3.11-6.14 0-10.078-2.938-3.937-2.922-3.937-7.906 0-3.516 1.984-6.078 1.985-2.563 5.985-4.563 1.796-.875 5.187-2.297Q34.281 42 37.5 41.063q4.828 3.218 6.688 6.687 1.859 3.469 1.859 8.016zm1.516-36.422q0 4.484-1.985 7.187-1.969 2.719-7.734 5.453-2.297 1.078-5.032 2-2.734.922-7.28 2.594-4.391-2.39-7.048-6.5-2.656-4.094-2.656-9.281 0-6.594 4.531-10.89 4.547-4.298 11.532-4.298 7.125 0 11.39 3.657 4.282 3.671 4.282 10.078z" id="Verdana-38"/></defs><g transform="matrix(.1 0 0 -.1 317.893 291.41)"><use xlink:href="#Verdana-38"/><use x="63.574" xlink:href="#Verdana-30"/><use x="127.148" xlink:href="#Verdana-30"/><use x="190.723" xlink:href="#Verdana-30"/></g></g></g><g id="xtick_6"><use x="395.892" xlink:href="#md6eb2cfbb6" y="276.812" stroke="#000" stroke-width=".8" id="line2d_6"/><g id="text_6"><defs><path d="M52.938 0h-39.36v7.422h15.14v48.734h-15.14v6.64q3.078 0 6.594.5 3.515.517 5.312 1.5 2.25 1.22 3.547 3.095 1.297 1.89 1.485 5.062h7.578V7.422h14.843z" id="Verdana-31"/></defs><g transform="matrix(.1 0 0 -.1 379.998 291.41)"><use xlink:href="#Verdana-31"/><use x="63.574" xlink:href="#Verdana-30"/><use x="127.148" xlink:href="#Verdana-30"/><use x="190.723" xlink:href="#Verdana-30"/><use x="254.297" xlink:href="#Verdana-30"/></g></g></g><g id="text_7"><defs><path d="M61.625 64.11H35.641V0h-9.657v64.11H0v8.593h61.625z" id="Verdana-54"/><path d="M18.89 63.672H8.548v9.516H18.89zM18.313 0H9.126v54.547h9.188z" id="Verdana-69"/><path d="M88.625 0h-9.188v31.063q0 3.515-.312 6.78-.313 3.266-1.344 5.22-1.125 2.109-3.219 3.171-2.093 1.078-6.062 1.078-3.844 0-7.703-1.937-3.86-1.922-7.719-4.89.14-1.126.234-2.626.11-1.484.11-2.953V0h-9.188v31.063q0 3.609-.312 6.843-.313 3.25-1.344 5.203-1.125 2.11-3.234 3.157-2.094 1.047-6.047 1.047-3.75 0-7.547-1.86-3.781-1.844-7.531-4.734V0H9.03v54.547h9.188v-6.063q4.297 3.563 8.562 5.563 4.282 2.016 9.11 2.016 5.562 0 9.437-2.344 3.89-2.344 5.797-6.5 5.563 4.687 10.156 6.765 4.594 2.078 9.813 2.078 8.984 0 13.25-5.453 4.281-5.437 4.281-15.203z" id="Verdana-6d"/><path d="M54.688 26.313H14.5q0-5.016 1.516-8.766 1.515-3.735 4.156-6.125 2.531-2.344 6.015-3.516 3.5-1.172 7.704-1.172 5.562 0 11.203 2.22 5.64 2.233 8.031 4.374h.484v-10Q48.97 1.375 44.141.047q-4.828-1.313-10.157-1.313-13.578 0-21.203 7.344-7.61 7.344-7.61 20.875 0 13.375 7.298 21.235 7.312 7.874 19.218 7.874 11.032 0 17.016-6.453 5.984-6.437 5.984-18.312zm-8.938 7.03q-.047 7.235-3.64 11.188-3.579 3.953-10.907 3.953-7.375 0-11.75-4.343-4.36-4.344-4.953-10.797z" id="Verdana-65"/><path d="M38.234-20.125H27.047q-8.64 9.922-13.422 21.64-4.781 11.72-4.781 26.422 0 14.688 4.781 26.407 4.781 11.718 13.422 21.64h11.187v-.5q-3.953-3.562-7.547-8.234-3.593-4.656-6.656-10.86-2.937-6-4.765-13.234-1.828-7.218-1.828-15.218 0-8.36 1.78-15.297Q21 5.719 24.032-.531q2.922-6.016 6.672-10.875 3.766-4.86 7.531-8.219z" id="Verdana-28"/><path d="M54.64 0h-9.187v31.063q0 3.75-.437 7.046-.438 3.297-1.61 5.157-1.218 2.047-3.515 3.047t-5.953 1q-3.766 0-7.876-1.86-4.093-1.844-7.843-4.734V0H9.03v54.547h9.188v-6.063q4.297 3.563 8.875 5.563 4.593 2.016 9.437 2.016 8.828 0 13.469-5.329 4.64-5.328 4.64-15.328z" id="Verdana-6e"/><path d="M54.25 0h-9.188v6.063Q40.438 2.39 36.188.438q-4.25-1.954-9.376-1.954-8.593 0-13.39 5.25Q8.64 8.984 8.64 19.141v35.406h9.187V23.484q0-4.14.39-7.109.391-2.953 1.657-5.047 1.313-2.14 3.406-3.125 2.11-.969 6.11-.969 3.562 0 7.78 1.844 4.235 1.86 7.892 4.735v40.734h9.187z" id="Verdana-75"/><path d="M37.36.484Q34.765-.203 31.702-.64q-3.047-.437-5.437-.437-8.344 0-12.688 4.484-4.344 4.5-4.344 14.422v29H3.031v7.719h6.203v15.672h9.172V54.547H37.36v-7.719H18.406v-24.86q0-4.296.188-6.718.203-2.406 1.375-4.5 1.078-1.953 2.953-2.86 1.89-.906 5.734-.906 2.25 0 4.688.657 2.453.656 3.515 1.093h.5z" id="Verdana-74"/><path d="M36.578 27.938q0-14.704-4.797-26.422Q27-10.204 18.36-20.125H7.172v.5q3.766 3.36 7.547 8.219Q18.5-6.546 21.39-.531q3.03 6.25 4.812 13.172 1.781 6.937 1.781 15.296 0 8-1.812 15.22-1.813 7.234-4.781 13.234-3.078 6.203-6.672 10.859-3.578 4.672-7.547 8.234v.5h11.187Q27 66.063 31.781 54.344q4.797-11.719 4.797-26.407z" id="Verdana-29"/></defs><g transform="matrix(.1 0 0 -.1 195.696 305.021)"><use xlink:href="#Verdana-54"/><use x="61.621" xlink:href="#Verdana-69"/><use x="89.063" xlink:href="#Verdana-6d"/><use x="186.328" xlink:href="#Verdana-65"/><use x="245.898" xlink:href="#Verdana-20"/><use x="281.055" xlink:href="#Verdana-28"/><use x="326.465" xlink:href="#Verdana-6d"/><use x="423.73" xlink:href="#Verdana-69"/><use x="451.172" xlink:href="#Verdana-6e"/><use x="514.453" xlink:href="#Verdana-75"/><use x="577.734" xlink:href="#Verdana-74"/><use x="617.139" xlink:href="#Verdana-65"/><use x="676.709" xlink:href="#Verdana-29"/></g></g></g><g id="matplotlib.axis_2"><g id="ytick_1"><g id="line2d_7"><defs><path d="M0 0h-3.5" id="mf038a30209" stroke="#000" stroke-width=".8"/></defs><use x="53.242" xlink:href="#mf038a30209" y="265.944" stroke="#000" stroke-width=".8"/></g><g id="text_8"><defs><path d="M56.5 23.094q0-5.078-1.86-9.719-1.859-4.64-5.078-7.813-3.515-3.406-8.374-5.25-4.86-1.828-11.25-1.828-5.97 0-11.485 1.25t-9.328 3v10.297h.688q4-2.531 9.374-4.312 5.375-1.781 10.547-1.781 3.47 0 6.72.968 3.25.985 5.78 3.422 2.157 2.094 3.25 5.016 1.094 2.937 1.094 6.797 0 3.765-1.297 6.343-1.281 2.594-3.578 4.157-2.547 1.859-6.187 2.609-3.625.766-8.125.766-4.297 0-8.282-.594-3.968-.578-6.859-1.172v37.453H56v-8.547H21.687V44.828q2.094.188 4.282.281 2.203.11 3.812.11 5.907 0 10.344-1 4.453-1 8.172-3.547 3.906-2.688 6.047-6.938Q56.5 29.5 56.5 23.094z" id="Verdana-35"/></defs><g transform="matrix(.1 0 0 -.1 20.81 269.743)"><use xlink:href="#Verdana-31"/><use x="63.574" xlink:href="#Verdana-31"/><use x="127.148" xlink:href="#Verdana-35"/><use x="190.723" xlink:href="#Verdana-30"/></g></g></g><g id="ytick_2"><use x="53.242" xlink:href="#mf038a30209" y="235.244" stroke="#000" stroke-width=".8" id="line2d_8"/><g id="text_9"><defs><path d="M57.281 61.813L24.36 0H13.922l35 64.156H7.516v8.547H57.28z" id="Verdana-37"/></defs><g transform="matrix(.1 0 0 -.1 20.81 239.043)"><use xlink:href="#Verdana-31"/><use x="63.574" xlink:href="#Verdana-31"/><use x="127.148" xlink:href="#Verdana-37"/><use x="190.723" xlink:href="#Verdana-35"/></g></g></g><g id="ytick_3"><use x="53.242" xlink:href="#mf038a30209" y="204.543" stroke="#000" stroke-width=".8" id="line2d_9"/><g transform="matrix(.1 0 0 -.1 20.81 208.342)" id="text_10"><use xlink:href="#Verdana-31"/><use x="63.574" xlink:href="#Verdana-32"/><use x="127.148" xlink:href="#Verdana-30"/><use x="190.723" xlink:href="#Verdana-30"/></g></g><g id="ytick_4"><use x="53.242" xlink:href="#mf038a30209" y="173.842" stroke="#000" stroke-width=".8" id="line2d_10"/><g transform="matrix(.1 0 0 -.1 20.81 177.642)" id="text_11"><use xlink:href="#Verdana-31"/><use x="63.574" xlink:href="#Verdana-32"/><use x="127.148" xlink:href="#Verdana-32"/><use x="190.723" xlink:href="#Verdana-35"/></g></g><g id="ytick_5"><use x="53.242" xlink:href="#mf038a30209" y="143.142" stroke="#000" stroke-width=".8" id="line2d_11"/><g transform="matrix(.1 0 0 -.1 20.81 146.941)" id="text_12"><use xlink:href="#Verdana-31"/><use x="63.574" xlink:href="#Verdana-32"/><use x="127.148" xlink:href="#Verdana-35"/><use x="190.723" xlink:href="#Verdana-30"/></g></g><g id="ytick_6"><use x="53.242" xlink:href="#mf038a30209" y="112.441" stroke="#000" stroke-width=".8" id="line2d_12"/><g transform="matrix(.1 0 0 -.1 20.81 116.24)" id="text_13"><use xlink:href="#Verdana-31"/><use x="63.574" xlink:href="#Verdana-32"/><use x="127.148" xlink:href="#Verdana-37"/><use x="190.723" xlink:href="#Verdana-35"/></g></g><g id="ytick_7"><use x="53.242" xlink:href="#mf038a30209" y="81.741" stroke="#000" stroke-width=".8" id="line2d_13"/><g id="text_14"><defs><path d="M50.688 35.016q2.343-2.11 3.859-5.282t1.516-8.203q0-4.984-1.813-9.14-1.813-4.141-5.078-7.22-3.656-3.405-8.625-5.046-4.953-1.64-10.86-1.64-6.046 0-11.906 1.452-5.86 1.438-9.625 3.141v10.203h.735q4.14-2.734 9.75-4.547Q24.266 6.938 29.5 6.938q3.063 0 6.531 1.015 3.469 1.031 5.625 3.031 2.235 2.157 3.328 4.735 1.11 2.594 1.11 6.547 0 3.906-1.25 6.468-1.235 2.563-3.438 4.032-2.203 1.515-5.328 2.078-3.125.562-6.734.562h-4.39V43.5h3.421q7.422 0 11.828 3.094 4.422 3.11 4.422 9.078 0 2.625-1.125 4.594-1.11 1.984-3.125 3.265-2.094 1.266-4.484 1.75-2.391.485-5.422.485-4.64 0-9.875-1.657-5.219-1.656-9.844-4.687h-.5v10.203q3.469 1.719 9.25 3.156 5.797 1.438 11.219 1.438 5.312 0 9.36-.985 4.062-.968 7.327-3.109 3.516-2.344 5.328-5.672 1.813-3.312 1.813-7.766 0-6.046-4.281-10.562Q46 41.609 40.188 40.437v-.687q2.343-.39 5.359-1.64 3.031-1.25 5.14-3.094z" id="Verdana-33"/></defs><g transform="matrix(.1 0 0 -.1 20.81 85.54)"><use xlink:href="#Verdana-31"/><use x="63.574" xlink:href="#Verdana-33"/><use x="127.148" xlink:href="#Verdana-30"/><use x="190.723" xlink:href="#Verdana-30"/></g></g></g><g id="ytick_8"><use x="53.242" xlink:href="#mf038a30209" y="51.04" stroke="#000" stroke-width=".8" id="line2d_14"/><g transform="matrix(.1 0 0 -.1 20.81 54.84)" id="text_15"><use xlink:href="#Verdana-31"/><use x="63.574" xlink:href="#Verdana-33"/><use x="127.148" xlink:href="#Verdana-32"/><use x="190.723" xlink:href="#Verdana-35"/></g></g><g id="ytick_9"><use x="53.242" xlink:href="#mf038a30209" y="20.34" stroke="#000" stroke-width=".8" id="line2d_15"/><g transform="matrix(.1 0 0 -.1 20.81 24.14)" id="text_16"><use xlink:href="#Verdana-31"/><use x="63.574" xlink:href="#Verdana-33"/><use x="127.148" xlink:href="#Verdana-35"/><use x="190.723" xlink:href="#Verdana-30"/></g></g><g id="text_17"><defs><path d="M62.594 20.75q0-4.25-1.985-8.406-1.968-4.14-5.53-7.016-3.907-3.125-9.11-4.89-5.203-1.75-12.516-1.75-7.86 0-14.14 1.453Q13.03 1.609 6.546 4.5v12.11h.687q5.516-4.594 12.735-7.094Q27.203 7.03 33.547 7.03q8.984 0 13.984 3.36 5.016 3.375 5.016 9 0 4.828-2.375 7.125-2.375 2.297-7.203 3.562-3.657.985-7.938 1.61-4.265.64-9.047 1.609-9.672 2.062-14.343 7.016-4.657 4.953-4.657 12.906 0 9.14 7.704 14.968 7.718 5.844 19.593 5.844 7.657 0 14.047-1.469 6.406-1.468 11.344-3.609V57.516h-.688q-4.156 3.515-10.922 5.828-6.75 2.328-13.828 2.328-7.765 0-12.484-3.219-4.703-3.219-4.703-8.297 0-4.547 2.344-7.14 2.343-2.578 8.25-3.953 3.125-.672 8.875-1.657 5.765-.968 9.78-2 8.095-2.156 12.188-6.5 4.11-4.343 4.11-12.156z" id="Verdana-53"/><path d="M57.031 27.688q0-6.844-1.937-12.313-1.922-5.469-5.188-9.172-3.468-3.86-7.625-5.797-4.14-1.922-9.125-1.922-4.64 0-8.11 1.11Q21.579.688 18.22 2.547L17.625 0H9.031v75.984h9.188V48.828q3.86 3.172 8.203 5.203 4.344 2.032 9.765 2.032 9.657 0 15.25-7.422 5.594-7.422 5.594-20.953zm-9.468-.25q0 9.765-3.235 14.812-3.219 5.063-10.39 5.063-4 0-8.11-1.735-4.094-1.734-7.61-4.469V9.86q3.907-1.75 6.704-2.437 2.812-.688 6.375-.688 7.625 0 11.937 5 4.328 5.016 4.328 15.704z" id="Verdana-62"/><path d="M48 15.719q0-7.469-6.188-12.25-6.171-4.781-16.859-4.781-6.062 0-11.11 1.437-5.046 1.438-8.468 3.14v10.313h.484q4.344-3.281 9.657-5.203 5.328-1.922 10.218-1.922 6.047 0 9.47 1.953 3.421 1.953 3.421 6.14 0 3.235-1.86 4.892-1.859 1.656-7.124 2.828-1.953.437-5.11 1.015-3.14.594-5.734 1.282-7.172 1.906-10.188 5.593-3 3.688-3 9.047 0 3.375 1.391 6.344 1.406 2.984 4.234 5.328 2.735 2.297 6.954 3.64 4.218 1.344 9.453 1.344 4.875 0 9.875-1.203 5.015-1.187 8.328-2.89v-9.828h-.485q-3.515 2.593-8.547 4.374-5.03 1.782-9.859 1.782-5.031 0-8.5-1.938-3.469-1.922-3.469-5.718 0-3.376 2.11-5.079 2.047-1.718 6.64-2.797 2.532-.578 5.672-1.171 3.157-.578 5.266-1.063 6.39-1.469 9.86-5.031Q48 21.687 48 15.719z" id="Verdana-73"/><path d="M49.36 3.422Q44.78 1.219 40.655 0q-4.125-1.219-8.765-1.219-5.907 0-10.844 1.735-4.938 1.734-8.453 5.25Q9.03 9.28 7.078 14.64q-1.953 5.375-1.953 12.562 0 13.375 7.344 20.985 7.36 7.624 19.422 7.624 4.687 0 9.203-1.328 4.515-1.312 8.265-3.218V41.063h-.484q-4.203 3.28-8.672 5.03Q35.75 47.86 31.5 47.86q-7.813 0-12.328-5.25-4.516-5.25-4.516-15.406 0-9.875 4.406-15.172Q23.485 6.734 31.5 6.734q2.781 0 5.656.735 2.89.734 5.172 1.906 2.016 1.031 3.766 2.172 1.765 1.156 2.781 1.984h.484z" id="Verdana-63"/><path d="M43.063 44.531h-.485q-2.047.485-3.984.703-1.922.22-4.563.22-4.25 0-8.203-1.876-3.953-1.875-7.61-4.86V0H9.032v54.547h9.188v-8.063q5.468 4.391 9.64 6.22 4.172 1.843 8.516 1.843 2.39 0 3.469-.125 1.078-.125 3.218-.469z" id="Verdana-72"/></defs><g transform="matrix(0 -.1 -.1 0 14.798 173.001)"><use xlink:href="#Verdana-53"/><use x="68.359" xlink:href="#Verdana-75"/><use x="131.641" xlink:href="#Verdana-62"/><use x="193.945" xlink:href="#Verdana-73"/><use x="246.045" xlink:href="#Verdana-63"/><use x="298.145" xlink:href="#Verdana-72"/><use x="340.82" xlink:href="#Verdana-69"/><use x="368.262" xlink:href="#Verdana-62"/><use x="430.566" xlink:href="#Verdana-65"/><use x="490.137" xlink:href="#Verdana-72"/><use x="532.813" xlink:href="#Verdana-73"/></g></g></g><path clip-path="url(#p9b72bb7429)" d="M69.475 264.716h.098l.13-1.228h.947l.13 1.228h.196l.131-1.228h.718l.13-1.228h.164l.228-4.912h.131l.13-1.228h.36l.163-4.912.163-2.456h.49l.195-3.684h.49l.163-2.456h.033l.228-4.912h.131l.163-2.456h.261l.13-1.229h.066l.163-2.456h.033l.196-3.684h.457l.163-2.456h.098l.13-1.228h.131l.13-1.228h.392l.131-1.228h.326l.164-2.456h.065l.13-1.228h.327l.13-1.228h.196l.327-8.596h.065l.228-4.912h.555l.131-1.228h.75l.131-1.228h.196l.196-3.684h.261l.13-1.228h.066l.13-1.228h.49l.13-1.228h1.045l.13-1.228h.49l.131-1.228h.196l.163-2.456h.327l.13-1.228h.229l.13-2.456h.196l.13-1.228h.098l.131-1.228h.36l.228-4.912h.098l.163-2.456h.391l.131-1.229h.261l.163-2.456h.457l.13-2.456h1.307l.13-1.228h.13l.131-1.228h.098l.13-1.228h.392l.131-1.228h1.6l.13-1.228h.065l.13-1.228h.49l.131-2.456h1.86l.131-1.228h1.502l.13-1.228h3.036l.13-1.228h.164l.13 1.228h2.938l.13-1.228h2.449l.13-1.228h1.47l.13-1.228h.555l.163-2.456h.098l.13-1.228h.36l.13-1.228h.588l.13-1.228h.163l.13-1.228h.36l.13-1.228h.62l.131-1.228h1.502l.13-1.228h.588l.13-1.228h.327l.13-1.228h.817l.13-1.228h1.012l.13-1.228h.458l.13-1.228h.294l.13-1.228h.62l.131-1.228h1.339l.13-1.228h.13l.164-2.456h.685l.13-1.228h.425l.13-1.228h.85l.13-1.228h.914l.13-1.228h.066l.13-1.228h1.404l.13-1.228h.523l.13-1.228h.523l.098-1.228.13 1.228h1.698l.13-1.228h.718l.13-1.228h1.535l.13-1.228h.196l.033-1.228.065 1.228h.784l.13-1.228h1.306l.13-1.228h1.992l.13-1.228h.327l.13-1.229h.522l.131-1.228h.849l.13-1.228h.686l.13-1.228h.164l.13-1.228h6.724l.13-1.228h7.28l.13-1.228h3.69l.13-1.228h.718l.13-1.228h1.306l.13-1.228h2.285l.131 1.228h2.252l.13-1.228h.556l.13-1.228h.751l.13-1.228h11.001l.13-1.228h2.35l.131-1.228h3.167l.13-1.228h1.338l.131-1.228h1.077l.13-1.228h.85l.13-1.228h.261l.13-1.228h6.137l.13 14.736h.948l.163 29.473h2.089l.13-1.228h3.493l.13 1.228h8.259l.13-1.228h1.861l.13-1.228h4.734l.13-1.228h4.178l.131-1.228h.424l.13 1.228h.458l.13-1.228h3.558l.131 1.228h3.068l.13-1.228h.393l.13-1.228h.49l.13 1.228h1.077l.131-1.228h.49l.13-1.228h4.342l.13-1.228h4.798l.131-1.228h14.264l.131-1.228h1.763l.13 1.228h7.671l.13-1.228h2.84l.131-1.228h5.157l.131-1.228h3.395l.13 1.228h3.558l.13-1.228h1.829l.13-1.228h1.502l.13-28.245h.588l.13-28.244h.098l.131-28.245h4.766l.13 56.49h.229l.13 56.488h7.214l.13-1.228h6.855l.131-1.228h13.024l.13-1.228h12.535l.13-56.489h.164l.13-56.489h3.069l.13-1.228h2.938l.13-1.228h12.502l.131-1.228h.065l.13-1.228h4.081l.13-1.228h6.366l.13-1.228h10.413l.13-1.228h6.007l.13 56.489h.36l.13 56.489h5.418l.13-1.228h5.68l.131-1.228h5.615l.13-1.228h.424" fill="none" stroke="#00e600" stroke-linecap="square" id="line2d_16"/><path d="M53.242 276.812V10.7" fill="none" stroke="#000" stroke-linecap="square" stroke-width=".8" id="patch_3"/><path d="M410.362 276.812V10.7" fill="none" stroke="#000" stroke-linecap="square" stroke-width=".8" id="patch_4"/><path d="M53.242 276.812h357.12" fill="none" stroke="#000" stroke-linecap="square" stroke-width=".8" id="patch_5"/><path d="M53.242 10.7h357.12" fill="none" stroke="#000" stroke-linecap="square" stroke-width=".8" id="patch_6"/></g></g><defs><clipPath id="p9b72bb7429"><path d="M53.242 10.7h357.12v266.112H53.242z"/></clipPath></defs></svg>